<svg width="20" height="20" viewBox="0 0 20 20" fill="none" xmlns="http://www.w3.org/2000/svg">
<path d="M19.7249 18.3125L16.0149 14.6325C17.455 12.837 18.1525 10.5578 17.9638 8.26385C17.7751 5.96985 16.7146 3.83533 15.0005 2.29919C13.2863 0.763054 11.0488 -0.0579415 8.74787 0.00501891C6.44699 0.0679793 4.25767 1.01011 2.63009 2.63769C1.00251 4.26527 0.0603804 6.45459 -0.00257996 8.75547C-0.0655404 11.0564 0.755456 13.2939 2.29159 15.0081C3.82773 16.7222 5.96225 17.7827 8.25625 17.9714C10.5502 18.1601 12.8294 17.4626 14.625 16.0225L18.305 19.7025C18.3979 19.7963 18.5085 19.8707 18.6304 19.9214C18.7522 19.9722 18.8829 19.9983 19.0149 19.9983C19.147 19.9983 19.2777 19.9722 19.3995 19.9214C19.5214 19.8707 19.632 19.7963 19.7249 19.7025C19.9052 19.5161 20.0059 19.2669 20.0059 19.0075C20.0059 18.7482 19.9052 18.499 19.7249 18.3125ZM9.01495 16.0225C7.63048 16.0225 6.2771 15.612 5.12596 14.8428C3.97481 14.0737 3.07761 12.9804 2.54779 11.7013C2.01798 10.4223 1.87936 9.01478 2.14945 7.65692C2.41955 6.29905 3.08623 5.05177 4.0652 4.0728C5.04417 3.09383 6.29145 2.42715 7.64932 2.15705C9.00718 1.88695 10.4147 2.02558 11.6937 2.55539C12.9728 3.08521 14.0661 3.98241 14.8352 5.13356C15.6044 6.2847 16.0149 7.63808 16.0149 9.02255C16.0149 10.8791 15.2775 12.6595 13.9647 13.9723C12.6519 15.2851 10.8715 16.0225 9.01495 16.0225Z" fill="#FAFEFF"/>
</svg>
